<?xml version="1.0" encoding="UTF-8" standalone="no"?>
<!-- Created with Inkscape (http://www.inkscape.org/) -->

<svg
   xmlns:dc="http://purl.org/dc/elements/1.1/"
   xmlns:cc="http://creativecommons.org/ns#"
   xmlns:rdf="http://www.w3.org/1999/02/22-rdf-syntax-ns#"
   xmlns:svg="http://www.w3.org/2000/svg"
   xmlns="http://www.w3.org/2000/svg"
   xmlns:sodipodi="http://sodipodi.sourceforge.net/DTD/sodipodi-0.dtd"
   xmlns:inkscape="http://www.inkscape.org/namespaces/inkscape"
   width="1000"
   height="1000"
   viewBox="0 0 1000 1000"
   id="svg2"
   version="1.1"
   inkscape:version="0.91 r13725"
   sodipodi:docname="7note.svg">
  <defs
     id="defs4">
    <inkscape:path-effect
       effect="spiro"
       id="path-effect4220"
       is_visible="true" />
    <inkscape:path-effect
       effect="spiro"
       id="path-effect3416"
       is_visible="true" />
  </defs>
  <sodipodi:namedview
     id="base"
     pagecolor="#ffffff"
     bordercolor="#666666"
     borderopacity="1.0"
     inkscape:pageopacity="0.0"
     inkscape:pageshadow="2"
     inkscape:zoom="0.70710678"
     inkscape:cx="488.9878"
     inkscape:cy="554.03938"
     inkscape:document-units="px"
     inkscape:current-layer="layer3"
     showgrid="false"
     units="px"
     inkscape:window-width="1535"
     inkscape:window-height="876"
     inkscape:window-x="65"
     inkscape:window-y="24"
     inkscape:window-maximized="1"
     showguides="true"
     inkscape:guide-bbox="true">
    <sodipodi:guide
       position="0,500"
       orientation="0,1"
       id="guide3402"
       inkscape:label=""
       inkscape:color="rgb(0,0,255)" />
    <sodipodi:guide
       position="500,0"
       orientation="1,0"
       id="guide3404"
       inkscape:label=""
       inkscape:color="rgb(0,0,255)" />
  </sodipodi:namedview>
  <metadata
     id="metadata7">
    <rdf:RDF>
      <cc:Work
         rdf:about="">
        <dc:format>image/svg+xml</dc:format>
        <dc:type
           rdf:resource="http://purl.org/dc/dcmitype/StillImage" />
        <dc:title />
      </cc:Work>
    </rdf:RDF>
  </metadata>
  <g
     inkscape:label="background"
     inkscape:groupmode="layer"
     id="layer1"
     transform="translate(0,-52.36216)"
     style="display:none"
     sodipodi:insensitive="true">
    <rect
       style="opacity:1;fill:#ffffff;fill-opacity:1;stroke:none;stroke-width:0.1;stroke-linecap:round;stroke-linejoin:round;stroke-miterlimit:4;stroke-dasharray:none;stroke-opacity:1"
       id="rect3395"
       width="1000"
       height="1000"
       x="0"
       y="52.36216" />
  </g>
  <g
     inkscape:groupmode="layer"
     id="layer3"
     inkscape:label="logo_background"
     style="display:inline">
    <circle
       style="display:inline;opacity:1;fill:#4b8cb9;fill-opacity:1;stroke:#4b8cb9;stroke-width:15;stroke-linecap:round;stroke-linejoin:round;stroke-miterlimit:4;stroke-dasharray:none;stroke-opacity:1"
       id="path3382"
       cx="500"
       cy="500"
       r="450" />
  </g>
  <g
     inkscape:groupmode="layer"
     id="layer2"
     inkscape:label="logo"
     style="display:inline">
    <g
       style="fill:#ffffff;fill-opacity:1"
       id="g3368"
       transform="matrix(0.60481848,0,0,0.60481848,286.1586,463.92227)">
      <circle
         transform="matrix(0.92387953,0.38268343,-0.38268343,0.92387953,0,0)"
         r="169.24371"
         cy="292.2366"
         cx="457.06454"
         id="path3400"
         style="opacity:1;fill:#ffffff;fill-opacity:1;stroke:none;stroke-width:0.1;stroke-linecap:round;stroke-linejoin:round;stroke-miterlimit:4;stroke-dasharray:none;stroke-opacity:1" />
      <rect
         transform="matrix(0.92387953,0.38268343,-0.38268343,0.92387953,0,0)"
         ry="36.584164"
         y="-666.94452"
         x="287.95358"
         height="1003.8114"
         width="72.730988"
         id="rect3406"
         style="opacity:1;fill:#ffffff;fill-opacity:1;stroke:none;stroke-width:0.1;stroke-linecap:round;stroke-linejoin:round;stroke-miterlimit:4;stroke-dasharray:none;stroke-opacity:1" />
      <path
         sodipodi:nodetypes="ccscccsc"
         inkscape:connector-curvature="0"
         inkscape:original-d="m 526.84375,-491.06249 c 0,0 -127.72081,91.54402 -144.79888,105.0391 -68.7709,49.55408 -126.58956,-19.77502 -182.07936,14.32997 -62.18103,38.21753 -82.97106,147.94879 -72.68629,292.648478 52.0164,-42.031108 122.3428,-172.175388 143.06349,-222.010718 62.63797,-151.80058 14.09909,30.27276 134.12236,-25.47665 22.1593,-10.28896 97.46346,-61.3548 113.2126,-80.03265 15.88477,-18.8387 9.16608,-84.49753 9.16608,-84.49753 z"
         inkscape:path-effect="#path-effect3416"
         id="path3414"
         d="m 526.84375,-491.06249 c -29.91455,53.80084 -84.36972,93.30337 -144.79888,105.0391 -29.96892,5.82016 -60.76071,5.10085 -91.28954,5.06578 -30.52883,-0.0351 -61.48718,0.69881 -90.78982,9.26419 -29.11827,8.51149 -55.93288,24.77237 -76.94067,46.65825 -21.00779,21.88588 -36.157641,49.34351 -43.470322,78.78572 -7.312681,29.44221 -6.770397,60.79735 1.556007,89.96909 8.326404,29.17173 24.416665,56.08906 46.168695,77.235418 -4.96416,-47.310328 6.68652,-96.200188 32.454,-136.187018 25.76747,-39.98684 65.47524,-70.79674 110.60949,-85.8237 43.22652,-14.3918 89.91892,-14.44433 134.12236,-25.47665 23.12564,-5.77171 45.6437,-14.62873 65.47703,-27.84793 19.83333,-13.21919 36.92794,-30.94083 47.73557,-52.18472 13.13212,-25.813 16.45761,-56.46902 9.16608,-84.49753 z"
         style="fill:#ffffff;fill-opacity:1;fill-rule:evenodd;stroke:none;stroke-width:1px;stroke-linecap:butt;stroke-linejoin:miter;stroke-opacity:1" />
      <rect
         transform="matrix(-0.3492276,-0.93703793,0.93703793,-0.3492276,0,0)"
         rx="36.365494"
         ry="41.812546"
         y="99.380882"
         x="-111.05116"
         height="545.8114"
         width="72.730988"
         id="rect3406-3"
         style="opacity:1;fill:#ffffff;fill-opacity:1;stroke:none;stroke-width:0.1;stroke-linecap:round;stroke-linejoin:round;stroke-miterlimit:4;stroke-dasharray:none;stroke-opacity:1" />
    </g>
    <path
       style="opacity:1;fill:#ffffff;fill-opacity:1;stroke:none;stroke-width:5;stroke-linecap:round;stroke-linejoin:round;stroke-miterlimit:4;stroke-dasharray:none;stroke-opacity:1"
       d="M 500.00003,50.000034 A 450.00003,450.00003 0 0 0 50.000007,499.99999 450.00003,450.00003 0 0 0 500.00003,949.99997 450.00003,450.00003 0 0 0 950,499.99999 450.00003,450.00003 0 0 0 500.00003,50.000034 Z m 0,47.701795 A 402.29845,402.29845 0 0 1 902.29816,499.99999 402.29845,402.29845 0 0 1 500.00003,902.29902 402.29845,402.29845 0 0 1 97.701847,499.99999 402.29845,402.29845 0 0 1 500.00003,97.701829 Z"
       id="path3343"
       inkscape:connector-curvature="0" />
  </g>
</svg>
